<svg xmlns="http://www.w3.org/2000/svg" xmlns:xlink="http://www.w3.org/1999/xlink" contentStyleType="text/css" height="663px" preserveAspectRatio="none" style="width:521px;height:663px;background:#FFFFFF;" version="1.1" viewBox="0 0 521 663" width="521px" zoomAndPan="magnify"><defs/><g><!--cluster lib_file--><g id="cluster_lib_file"><path d="M141.5,427.25 L192.5,427.25 A3.75,3.75 0 0 1 195,429.75 L202,449.7383 L264.5,449.7383 A2.5,2.5 0 0 1 267,452.2383 L267,654.02 A2.5,2.5 0 0 1 264.5,656.52 L141.5,656.52 A2.5,2.5 0 0 1 139,654.02 L139,429.75 A2.5,2.5 0 0 1 141.5,427.25 " fill="none" style="stroke:#000000;stroke-width:1.5;"/><line style="stroke:#000000;stroke-width:1.5;" x1="139" x2="202" y1="449.7383" y2="449.7383"/><text fill="#000000" font-family="sans-serif" font-size="14" font-weight="bold" lengthAdjust="spacing" textLength="50" x="143" y="442.7852">lib_file</text></g><!--cluster view_fldr--><g id="cluster_view_fldr"><path d="M8.5,266.99 L75.5,266.99 A3.75,3.75 0 0 1 78,269.49 L85,289.4783 L176.5,289.4783 A2.5,2.5 0 0 1 179,291.9783 L179,375.75 A2.5,2.5 0 0 1 176.5,378.25 L8.5,378.25 A2.5,2.5 0 0 1 6,375.75 L6,269.49 A2.5,2.5 0 0 1 8.5,266.99 " fill="none" style="stroke:#000000;stroke-width:1.5;"/><line style="stroke:#000000;stroke-width:1.5;" x1="6" x2="85" y1="289.4783" y2="289.4783"/><text fill="#000000" font-family="sans-serif" font-size="14" font-weight="bold" lengthAdjust="spacing" textLength="66" x="10" y="282.5252">view_fldr</text></g><!--cluster ctrl_fldr--><g id="cluster_ctrl_fldr"><path d="M225.5,127.99 L283.5,127.99 A3.75,3.75 0 0 1 286,130.49 L293,150.4783 L511.5,150.4783 A2.5,2.5 0 0 1 514,152.9783 L514,368.19 A2.5,2.5 0 0 1 511.5,370.69 L225.5,370.69 A2.5,2.5 0 0 1 223,368.19 L223,130.49 A2.5,2.5 0 0 1 225.5,127.99 " fill="none" style="stroke:#000000;stroke-width:1.5;"/><line style="stroke:#000000;stroke-width:1.5;" x1="223" x2="293" y1="150.4783" y2="150.4783"/><text fill="#000000" font-family="sans-serif" font-size="14" font-weight="bold" lengthAdjust="spacing" textLength="57" x="227" y="143.5252">ctrl_fldr</text></g><!--entity model--><g id="elem_model"><rect fill="#FFC0CB" height="60.2656" rx="2.5" ry="2.5" style="stroke:#FF6655;stroke-width:0.5;" width="96" x="155" y="580.25"/><rect fill="#FFC0CB" height="10" style="stroke:#FF6655;stroke-width:0.5;" width="15" x="231" y="585.25"/><rect fill="#FFC0CB" height="2" style="stroke:#FF6655;stroke-width:0.5;" width="4" x="229" y="587.25"/><rect fill="#FFC0CB" height="2" style="stroke:#FF6655;stroke-width:0.5;" width="4" x="229" y="591.25"/><text fill="#000000" font-family="Courier" font-size="13" font-style="italic" lengthAdjust="spacing" textLength="56" x="170" y="612.3169">&#171;model&#187;</text><text fill="#000000" font-family="Courier" font-size="13" lengthAdjust="spacing" textLength="40" x="178" y="627.4497">Model</text></g><!--entity game--><g id="elem_game"><ellipse cx="203" cy="491.25" fill="#BC8F8F" rx="8" ry="8" style="stroke:#FFA500;stroke-width:0.5;"/><text fill="#000000" font-family="sans-serif" font-size="14" lengthAdjust="spacing" textLength="39" x="183.5" y="521.7852">Game</text></g><!--entity view--><g id="elem_view"><rect fill="#ADD8E6" height="60.2656" rx="2.5" ry="2.5" style="stroke:#00008B;stroke-width:0.5;" width="88" x="22" y="301.99"/><rect fill="#ADD8E6" height="10" style="stroke:#00008B;stroke-width:0.5;" width="15" x="90" y="306.99"/><rect fill="#ADD8E6" height="2" style="stroke:#00008B;stroke-width:0.5;" width="4" x="88" y="308.99"/><rect fill="#ADD8E6" height="2" style="stroke:#00008B;stroke-width:0.5;" width="4" x="88" y="312.99"/><text fill="#000000" font-family="Courier" font-size="13" font-style="italic" lengthAdjust="spacing" textLength="48" x="37" y="334.0569">&#171;view&#187;</text><text fill="#000000" font-family="Courier" font-size="13" lengthAdjust="spacing" textLength="32" x="45" y="349.1897">View</text></g><!--entity renderer--><g id="elem_renderer"><ellipse cx="154" cy="332.12" fill="#BC8F8F" rx="8" ry="8" style="stroke:#FFA500;stroke-width:0.5;"/><text fill="#000000" font-family="sans-serif" font-size="14" lengthAdjust="spacing" textLength="63" x="122.5" y="362.6552">Renderer</text></g><!--entity controller--><g id="elem_controller"><rect fill="#FFD700" height="45.1328" rx="2.5" ry="2.5" style="stroke:#000000;stroke-width:0.5;" width="120" x="239" y="309.56"/><rect fill="#FFD700" height="10" style="stroke:#000000;stroke-width:0.5;" width="15" x="339" y="314.56"/><rect fill="#FFD700" height="2" style="stroke:#000000;stroke-width:0.5;" width="4" x="337" y="316.56"/><rect fill="#FFD700" height="2" style="stroke:#000000;stroke-width:0.5;" width="4" x="337" y="320.56"/><text fill="#000000" font-family="Courier" font-size="13" lengthAdjust="spacing" textLength="80" x="254" y="341.6269">Controller</text></g><!--entity loop--><g id="elem_loop"><rect fill="#FFD700" height="45.1328" rx="2.5" ry="2.5" style="stroke:#000000;stroke-width:0.5;" width="104" x="394" y="309.56"/><rect fill="#FFD700" height="10" style="stroke:#000000;stroke-width:0.5;" width="15" x="478" y="314.56"/><rect fill="#FFD700" height="2" style="stroke:#000000;stroke-width:0.5;" width="4" x="476" y="316.56"/><rect fill="#FFD700" height="2" style="stroke:#000000;stroke-width:0.5;" width="4" x="476" y="320.56"/><text fill="#000000" font-family="Courier" font-size="13" lengthAdjust="spacing" textLength="64" x="409" y="341.6269">Evt&#160;Loop</text></g><!--entity control--><g id="elem_control"><ellipse cx="299" cy="191.99" fill="#BC8F8F" rx="8" ry="8" style="stroke:#FFA500;stroke-width:0.5;"/><text fill="#000000" font-family="sans-serif" font-size="14" lengthAdjust="spacing" textLength="52" x="273" y="222.5252">Control</text></g><!--entity User--><g id="elem_User"><ellipse cx="299" cy="14" fill="#F1F1F1" rx="8" ry="8" style="stroke:#181818;stroke-width:0.5;"/><path d="M299,22 L299,49 M286,30 L312,30 M299,49 L286,64 M299,49 L312,64 " fill="none" style="stroke:#181818;stroke-width:0.5;"/><text fill="#000000" font-family="sans-serif" font-size="14" lengthAdjust="spacing" textLength="31" x="283.5" y="79.0352">User</text></g><!--link controller to loop--><g id="link_controller_loop"><path d="M359.21,332.12 C370.63,332.12 382.49,332.12 393.64,332.12 " fill="none" id="controller-loop" style="stroke:#FF6655;stroke-width:1.0;"/></g><!--link game to model--><g id="link_game_model"><path d="M203,499.94 C203,515.87 203,553.23 203,579.86 " fill="none" id="game-model" style="stroke:#FF6655;stroke-width:1.0;"/></g><!--link view to renderer--><g id="link_view_renderer"><path d="M110.26,332.12 C123.27,332.12 136.25,332.12 144.65,332.12 " fill="none" id="view-renderer" style="stroke:#FF6655;stroke-width:1.0;"/></g><!--link control to controller--><g id="link_control_controller"><path d="M299,200.81 C299,221.41 299,277.75 299,309.18 " fill="none" id="control-controller" style="stroke:#FF6655;stroke-width:1.0;"/></g><!--link User to control--><g id="link_User_control"><path d="M299,82.41 C299,116.6 299,158.44 299,177.1 " fill="none" id="User-to-control" style="stroke:#FF6655;stroke-width:1.0;"/><polygon fill="#FF6655" points="299,183.1,303,174.1,299,178.1,295,174.1,299,183.1" style="stroke:#FF6655;stroke-width:1.0;"/></g><!--link controller to game--><g id="link_controller_game"><path d="M285.65,354.97 C263.91,390.56 224.9876,454.2597 210.8776,477.3597 " fill="none" id="controller-to-game" style="stroke:#FF6655;stroke-width:1.0;stroke-dasharray:7.0,7.0;"/><polygon fill="#FF6655" points="207.75,482.48,215.855,476.8846,210.3564,478.213,209.0279,472.7144,207.75,482.48" style="stroke:#FF6655;stroke-width:1.0;"/><text fill="#777777" font-family="Impact" font-size="13" lengthAdjust="spacing" textLength="29" x="260" y="408.3643">write</text></g><!--reverse link renderer to controller--><g id="link_renderer_controller"><path d="M169.07,332.12 C184.2,332.12 209.78,332.12 238.69,332.12 " fill="none" id="renderer-backto-controller" style="stroke:#FF6655;stroke-width:1.0;stroke-dasharray:7.0,7.0;"/><polygon fill="#FF6655" points="163.07,332.12,172.07,336.12,168.07,332.12,172.07,328.12,163.07,332.12" style="stroke:#FF6655;stroke-width:1.0;"/><text fill="#777777" font-family="Impact" font-size="13" lengthAdjust="spacing" textLength="39" x="181.5" y="349.2343">trigger</text></g><!--link view to game--><g id="link_view_game"><path d="M91.77,362.68 C124.01,399.66 173.3459,456.2485 192.1959,477.8585 " fill="none" id="view-to-game" style="stroke:#FF6655;stroke-width:1.0;stroke-dasharray:7.0,7.0;"/><polygon fill="#FF6655" points="196.14,482.38,193.2383,472.9683,192.8533,478.612,187.2095,478.2271,196.14,482.38" style="stroke:#FF6655;stroke-width:1.0;"/><text fill="#777777" font-family="Impact" font-size="13" lengthAdjust="spacing" textLength="26" x="131" y="408.3643">read</text></g><!--SRC=[RP3VIyCm4CVVyrSSyqKVEX3PX54ARZeHfiX4NqH6rbvhQ9gCQxQXulzkagPTf_QbkVlUztC_wbAe3ITUWL06AUSfmXS3MFEqB4XlLJRJKXCiTVqn9RrNJjEK8JLvJLmLoBuPgpjIggkDLgYC9ysrCa_Y4-7ymaRJOsuSLpf3cIJmA5Jfz0Fxe9tCv-FnQCJ-y-y4xct9GXJlPYgt-9iHz6jEfPV3H0-yGfZfBGcaOmkifUtnjnKKMcOsVKNs31tYhjhmrBJffh0TjrSRX4l_kMjDdcka2MEvXIA15EjLBcHpUu3NUxVv6_0Q_0qWZiCZINp1wHaCRct_WIifxCCn0yjjlCfbHYtinIOyooaEvVyzqXALDI9v6eN04WCmDIIFW3Ex4MafaJmsxS96ljaPM6YzyQAqZwvHC0vwBZVu0G1HOs1k9uYog5cR-OaZYWxJ1O-lwGt0t5qXYfAEtuCFXua_5anWJy8WQsaG3tiGAmyCYQAm5sawzuo4FFi1]--></g></svg>